<!DOCTYPE svg PUBLIC "-//W3C//DTD SVG 20010904//EN" "http://www.w3.org/TR/2001/REC-SVG-20010904/DTD/svg10.dtd">
<svg version="1.0" xmlns="http://www.w3.org/2000/svg" width="144px" height="144px" viewBox="0 0 1440 1440" preserveAspectRatio="xMidYMid meet">
<g id="layer101" fill="#cc0000" stroke="none">
 <path d="M150 1419 c-55 -25 -95 -62 -123 -114 -22 -40 -22 -46 -22 -585 l0 -545 28 -47 c31 -53 79 -94 134 -114 48 -17 1036 -20 1095 -4 59 17 120 69 150 129 l28 55 0 525 0 526 -24 50 c-28 60 -66 97 -126 124 -43 20 -63 21 -570 21 -507 0 -527 -1 -570 -21z"/>
 </g>
<g id="layer102" fill="#ffffff" stroke="none">
 <path d="M930 1202 c-158 -56 -309 -162 -425 -299 -145 -169 -218 -312 -219 -425 -1 -77 16 -109 80 -145 61 -35 89 -31 120 20 15 23 47 71 71 107 23 36 43 73 43 83 0 9 -13 43 -30 74 -16 31 -30 64 -30 73 0 24 47 86 128 168 118 120 155 133 232 82 25 -16 54 -30 64 -30 11 0 52 21 93 48 41 26 88 56 106 67 42 27 44 54 11 115 -51 94 -111 109 -244 62z"/>
 <path d="M833 740 c-31 -13 -37 -45 -16 -87 28 -56 65 -78 129 -77 48 0 54 -2 54 -20 0 -25 69 -367 77 -379 3 -5 15 10 27 34 12 24 37 67 55 96 41 65 50 126 27 187 -16 42 -84 116 -106 116 -20 0 -9 -27 25 -60 42 -41 53 -86 31 -126 -17 -32 -65 -88 -70 -83 -6 7 -36 208 -36 238 0 51 -29 107 -68 134 -42 29 -97 41 -129 27z"/>
 <path d="M725 430 c-8 -25 19 -70 46 -77 10 -3 19 -6 19 -7 0 0 -9 -35 -20 -76 -11 -41 -20 -85 -20 -97 0 -23 0 -23 40 5 50 35 75 84 63 125 -4 17 -14 32 -21 35 -9 3 -10 -3 -2 -23 14 -36 5 -59 -26 -73 -14 -7 -27 -12 -28 -12 -2 0 5 36 17 80 l21 80 -20 27 c-27 36 -60 42 -69 13z"/>
 </g>

</svg>